<?xml version="1.0" standalone="no"?>
<!DOCTYPE svg PUBLIC "-//W3C//DTD SVG 20010904//EN"
 "http://www.w3.org/TR/2001/REC-SVG-20010904/DTD/svg10.dtd">
<svg version="1.0" xmlns="http://www.w3.org/2000/svg"
 width="1200.000000pt" height="1200.000000pt" viewBox="0 0 1200.000000 1200.000000"
 preserveAspectRatio="xMidYMid meet">
<metadata>
Created by potrace 1.11, written by Peter Selinger 2001-2013
</metadata>
<g transform="translate(0.000000,1200.000000) scale(0.100000,-0.100000)"
fill="#000000" stroke="none">
<path d="M9408 10610 c-48 -9 -72 -25 -160 -111 -98 -96 -134 -111 -237 -103
-104 9 -130 -2 -166 -68 -26 -48 -28 -58 -29 -192 0 -77 2 -164 7 -192 l7 -50
-73 -95 c-62 -78 -143 -193 -217 -303 -20 -31 -40 -59 -147 -214 -51 -73 -125
-194 -164 -270 -39 -75 -109 -207 -154 -292 -45 -85 -120 -227 -165 -315 -46
-88 -86 -164 -90 -170 -5 -5 -28 -48 -52 -95 -25 -47 -69 -130 -100 -185 -30
-55 -72 -131 -93 -170 -20 -38 -66 -122 -100 -185 -34 -63 -82 -152 -106 -196
-24 -45 -109 -202 -189 -348 l-145 -267 -180 -158 c-99 -86 -224 -194 -277
-238 l-97 -81 -203 -66 c-184 -59 -213 -66 -313 -71 -60 -3 -126 -8 -145 -10
-19 -2 -84 -7 -145 -10 -60 -3 -132 -8 -160 -10 -76 -8 -408 22 -510 45 -49
11 -133 29 -185 40 -52 11 -137 28 -188 39 -81 17 -399 138 -618 236 -28 12
-156 99 -285 192 -129 93 -305 221 -392 284 l-159 114 -587 735 c-324 404
-685 863 -805 1020 -196 259 -263 346 -306 402 -14 18 -19 16 -104 -59 l-88
-78 -139 -302 -139 -302 -79 -314 -80 -314 15 -64 c8 -35 19 -84 24 -109 34
-163 49 -222 62 -242 9 -13 98 -117 197 -232 100 -115 180 -210 178 -213 -3
-2 -33 12 -68 31 -35 19 -106 51 -158 71 -77 30 -96 34 -106 23 -30 -31 -146
-283 -181 -393 -37 -114 -39 -126 -38 -245 0 -69 3 -145 7 -170 8 -63 85 -261
110 -283 11 -9 63 -42 116 -72 205 -118 275 -165 447 -304 99 -80 185 -151
192 -158 8 -7 29 -25 48 -40 19 -14 33 -28 30 -30 -2 -3 -35 9 -73 25 -129 55
-134 56 -463 107 -91 14 -177 27 -191 30 -25 5 -27 2 -32 -37 -3 -24 -4 -128
-1 -231 l4 -189 104 -251 104 -250 163 -185 c90 -101 197 -232 238 -290 74
-106 75 -108 107 -247 36 -155 42 -172 120 -330 38 -78 74 -134 123 -190 l69
-80 149 -49 c81 -27 152 -52 156 -56 4 -3 14 -59 21 -122 l13 -116 56 -73
c116 -155 135 -176 227 -252 52 -43 147 -112 210 -154 93 -61 145 -106 270
-233 176 -178 224 -217 365 -291 208 -109 331 -181 539 -316 184 -120 167
-113 426 -178 30 -8 141 -24 245 -36 105 -11 199 -22 210 -24 11 -1 49 -6 85
-10 93 -10 253 -61 277 -88 49 -55 82 -122 103 -208 19 -76 31 -101 66 -145
l44 -54 0 -465 0 -465 144 0 144 0 6 37 c3 21 17 155 31 298 14 143 28 283 31
311 8 77 69 282 90 305 11 12 36 34 56 50 l37 30 15 -33 c8 -18 22 -64 31
-102 45 -201 123 -368 189 -410 l42 -26 19 -183 c10 -100 20 -185 21 -189 1
-5 2 -26 3 -48 l1 -40 148 0 149 0 7 188 c8 236 10 249 50 292 58 62 84 104
126 201 23 51 58 131 77 176 l36 82 249 216 c176 153 264 237 302 288 53 72
171 217 361 444 83 99 114 129 184 173 46 29 179 136 295 237 116 102 238 206
272 231 33 26 99 77 145 114 46 38 136 109 199 159 134 106 486 448 544 531
23 31 85 117 139 191 97 135 113 161 214 352 153 291 183 362 243 580 5 17 24
84 43 150 32 109 46 173 61 275 3 19 15 100 28 180 20 126 23 177 21 385 -1
132 -4 263 -7 290 -5 50 -23 206 -31 280 -3 22 -9 85 -15 140 -22 209 -18 188
-101 590 -69 336 -74 377 -84 648 -3 106 -8 210 -10 232 -2 22 -6 119 -10 215
-3 96 -8 197 -11 224 -4 46 12 189 71 646 8 63 19 126 24 140 5 14 19 63 32
110 34 130 98 257 123 247 16 -6 176 -24 281 -31 39 -3 145 -17 238 -31 226
-34 347 -43 347 -24 -1 114 -211 377 -405 506 -38 25 -100 66 -136 90 l-67 44
-31 118 c-17 65 -31 120 -31 124 0 4 20 37 45 74 25 37 45 72 45 79 0 52 -25
172 -38 188 -26 28 -93 63 -137 71 -31 6 -49 18 -80 54 -22 26 -57 55 -78 64
-43 20 -139 22 -187 6 -26 -10 -46 -8 -104 6 -69 17 -74 17 -119 0 -54 -20
-77 -16 -144 24 -54 33 -130 50 -185 41z m497 -699 c59 -34 94 -114 81 -186
-13 -69 -98 -134 -174 -135 -37 0 -98 28 -124 56 -34 40 -48 91 -38 146 6 28
16 58 23 67 57 74 155 96 232 52z"/>
</g>
</svg>
