<?xml version="1.0" standalone="no"?>
<!DOCTYPE svg PUBLIC "-//W3C//DTD SVG 20010904//EN"
 "http://www.w3.org/TR/2001/REC-SVG-20010904/DTD/svg10.dtd">
<svg version="1.0" xmlns="http://www.w3.org/2000/svg"
 width="640.000000pt" height="640.000000pt" viewBox="0 0 640.000000 640.000000"
 preserveAspectRatio="xMidYMid meet">
<metadata>
Created by potrace 1.11, written by Peter Selinger 2001-2013
</metadata>
<g transform="translate(0.000000,640.000000) scale(0.100000,-0.100000)"
fill="#000000" stroke="none">
<path d="M3677 5600 c-27 -17 -82 -62 -122 -100 -41 -39 -86 -75 -100 -80 -15
-6 -67 -10 -116 -10 -50 0 -99 -5 -109 -10 -11 -6 -32 -31 -47 -57 -26 -44
-27 -55 -28 -168 0 -66 4 -154 8 -195 l8 -75 -78 -105 c-137 -185 -405 -586
-466 -697 -32 -60 -151 -290 -264 -513 -113 -223 -303 -589 -423 -815 -119
-225 -286 -542 -370 -702 l-154 -293 -272 -242 -272 -241 -199 -69 -198 -68
-180 -15 c-99 -8 -206 -15 -237 -15 l-58 0 0 -565 0 -565 2284 0 2283 0 14
108 c24 182 17 543 -15 817 -42 356 -70 527 -134 830 -88 414 -81 347 -122
1067 l-19 348 25 222 c52 463 81 614 150 771 l39 88 95 -6 c145 -11 349 -32
515 -54 83 -12 181 -21 218 -21 77 0 77 0 34 85 -76 151 -210 287 -444 449
-64 45 -124 92 -134 106 -10 14 -31 73 -46 131 l-27 106 43 66 c43 67 43 67
36 134 -4 38 -13 82 -20 99 -17 42 -69 80 -129 95 -35 9 -62 26 -103 64 -75
73 -153 92 -244 60 -39 -14 -49 -14 -112 1 -64 16 -73 16 -112 2 -51 -19 -87
-13 -171 28 -39 19 -78 29 -119 32 -53 3 -65 0 -108 -28z m551 -651 c85 -42
119 -144 77 -233 -54 -113 -230 -121 -295 -13 -56 91 -22 204 74 248 54 24 90
24 144 -2z"/>
</g>
</svg>
